HIERARCHY
ROOT Hips
{
	OFFSET -3.958830 18.904000 13.208200
	CHANNELS 6 Xposition Yposition Zposition Zrotation Yrotation Xrotation 
	JOINT LHipJoint
	{
		OFFSET 0.000000 0.000000 0.000000
		CHANNELS 3 Zrotation Yrotation Xrotation
		JOINT LeftUpLeg
		{
			OFFSET 1.800000 -1.400000 0.085000
			CHANNELS 3 Zrotation Yrotation Xrotation
			JOINT LeftLeg
			{
				OFFSET 2.215000 -6.000000 0.000000
				CHANNELS 3 Zrotation Yrotation Xrotation
				JOINT LeftFoot
				{
					OFFSET 2.500000 -6.900000 0.000000
					CHANNELS 3 Zrotation Yrotation Xrotation
					JOINT LeftToeBase
					{
						OFFSET 0.200000 -0.500000 1.950000
						CHANNELS 3 Zrotation Yrotation Xrotation
						End Site
						{
							OFFSET 0.000000 0.000000 0.000000
						}
					}
				}
			}
		}
	}
	JOINT RHipJoint
	{
		OFFSET 0.000000 0.000000 0.000000
		CHANNELS 3 Zrotation Yrotation Xrotation
		JOINT RightUpLeg
		{
			OFFSET -1.800000 -1.400000 0.085000
			CHANNELS 3 Zrotation Yrotation Xrotation
			JOINT RightLeg
			{
				OFFSET -2.215000 -6.000000 0.000000
				CHANNELS 3 Zrotation Yrotation Xrotation
				JOINT RightFoot
				{
					OFFSET -2.500000 -6.900000 0.000000
					CHANNELS 3 Zrotation Yrotation Xrotation
					JOINT RightToeBase
					{
						OFFSET -0.200000 -0.500000 1.950000
						CHANNELS 3 Zrotation Yrotation Xrotation
						End Site
						{
							OFFSET 0.000000 0.000000 0.000000
						}
					}
				}
			}
		}
	}
	JOINT LowerBack
	{
		OFFSET 0.000000 0.000000 0.000000
		CHANNELS 3 Zrotation Yrotation Xrotation
		JOINT Spine
		{
			OFFSET -0.087000 1.940000 -0.288900
			CHANNELS 3 Zrotation Yrotation Xrotation
			JOINT Spine1
			{
				OFFSET 0.000000 1.950000 0.060000
				CHANNELS 3 Zrotation Yrotation Xrotation
				JOINT Neck
				{
					OFFSET 0.000000 0.000000 0.000000
					CHANNELS 3 Zrotation Yrotation Xrotation
					JOINT Neck1
					{
						OFFSET 0.000000 1.600000 0.340000
						CHANNELS 3 Zrotation Yrotation Xrotation
						JOINT Head
						{
							OFFSET 0.000000 1.667000 -0.240000
							CHANNELS 3 Zrotation Yrotation Xrotation
							End Site
							{
								OFFSET 0.000000 0.000000 0.000000
							}
						}
					}
				}
				JOINT LeftShoulder
				{
					OFFSET 0.000000 0.000000 0.000000
					CHANNELS 3 Zrotation Yrotation Xrotation
					JOINT LeftArm
					{
						OFFSET 2.700000 1.550000 -0.730000
						CHANNELS 3 Zrotation Yrotation Xrotation
						JOINT LeftForeArm
						{
							OFFSET 5.450000 0.000000 0.000000
							CHANNELS 3 Zrotation Yrotation Xrotation
							JOINT LeftHand
							{
								OFFSET 3.450000 0.000000 0.000000
								CHANNELS 3 Zrotation Yrotation Xrotation
								JOINT LeftHandIndex1
								{
									OFFSET 0.750000 0.000000 0.000000
									CHANNELS 3 Zrotation Yrotation Xrotation
									End Site
									{
										OFFSET 0.000000 0.000000 0.000000
									}
								}
							}
						}
					}
				}
				JOINT RightShoulder
				{
					OFFSET 0.000000 0.000000 0.000000
					CHANNELS 3 Zrotation Yrotation Xrotation
					JOINT RightArm
					{
						OFFSET -2.700000 1.550000 -0.730000
						CHANNELS 3 Zrotation Yrotation Xrotation
						JOINT RightForeArm
						{
							OFFSET -5.450000 0.000000 0.000000
							CHANNELS 3 Zrotation Yrotation Xrotation
							JOINT RightHand
							{
								OFFSET -3.450000 0.000000 0.000000
								CHANNELS 3 Zrotation Yrotation Xrotation
								JOINT RightHandIndex1
								{
									OFFSET -0.750000 0.000000 0.000000
									CHANNELS 3 Zrotation Yrotation Xrotation
									End Site
									{
										OFFSET 0.000000 0.000000 0.000000
									}
								}
							}
						}
					}
				}
			}
		}
	}
}
MOTION
Frames: 9
Frame Time: 0.016667
1.272410 17.630870 -3.253010 3.451388 45.796275 3.896818 -15.511548 13.702687 3.126537 -6.452275 -0.395087 -4.335335 -2.001684 5.127318 18.098667 -1.513696 5.089516 2.968832 0.420980 -0.171340 0.319490 18.024605 -9.822388 3.406534 3.369343 2.726611 -39.190573 6.205189 -7.734313 28.441168 -0.166593 -3.466283 3.262071 0.279890 0.508260 0.035270 -3.983915 -4.000814 -7.878633 18.376699 -10.041884 22.984456 -0.913293 -5.894597 9.296641 0.344639 -4.588291 -10.091134 -12.223618 -6.574875 31.542575 3.543320 -9.521800 -28.207090 -19.697674 -21.334871 1.270821 -48.556875 -43.606543 17.678468 -69.282467 -68.756779 44.816522 -3.877846 2.604824 1.266840 0.101790 -0.203560 0.090030 18.774801 19.000485 10.397577 37.503610 -0.495550 -1.950182 1.443715 -11.833072 0.917828 1.936842 -0.678934 -0.859430 0.889540 0.406840 -0.550730 
1.390860 17.619280 -3.106110 3.153700 42.174307 4.679469 -15.489707 13.660674 3.114684 -5.610303 0.129821 -2.615660 -4.369255 5.694317 15.223650 -1.453183 5.211001 2.962255 0.410210 -0.201220 0.313240 18.089856 -9.685426 3.330330 5.301328 3.003495 -36.091771 7.823070 -6.468390 21.374807 -0.012199 -2.596361 3.600988 0.271620 0.540040 0.043360 -3.935400 -4.129660 -7.819126 18.097466 -9.469798 19.663235 -0.682713 -6.127932 9.700668 -0.131727 -4.923068 -9.950444 -12.895284 -5.664444 30.889717 2.544690 -9.162420 -25.589140 -16.794773 -19.171494 1.115216 -51.941805 -44.928150 19.039540 -57.497823 -65.074482 34.329375 -3.824435 2.677055 1.218400 0.139800 -0.246040 0.105000 16.737032 16.966428 10.096548 38.796883 -2.148485 -2.208224 3.567290 -12.359552 0.578151 1.942451 -0.706028 -0.861040 0.867270 0.401080 -0.546210 
1.487680 17.599670 -2.960090 2.762767 38.360686 5.756973 -15.466586 13.537230 3.084821 -5.211796 0.273767 -1.861230 -6.268739 6.039633 13.379396 -1.399884 5.298836 2.948232 0.418280 -0.176120 0.280200 18.175532 -9.493641 3.337732 7.290894 3.507820 -34.053418 8.833588 -5.622298 16.991727 0.061530 -2.215264 3.760595 0.298550 0.570560 0.044570 -3.887951 -4.204355 -7.763540 18.040188 -8.691742 16.501448 -0.440697 -5.988459 9.670935 -0.599058 -5.339551 -9.603611 -13.406457 -4.887314 29.541314 2.176640 -8.900040 -23.541180 -14.534463 -16.407967 0.638652 -56.220673 -46.478398 21.686568 -48.197511 -58.884462 25.339353 -3.828531 2.688530 1.153730 0.175410 -0.283560 0.134330 15.305682 14.588380 9.636410 38.990238 -3.914114 -2.437545 6.051373 -13.070424 0.050668 1.938787 -0.739359 -0.850980 0.850420 0.387610 -0.521480 
1.568040 17.585630 -2.805990 2.766054 34.571149 6.312615 -15.466817 13.478251 3.095696 -4.856817 0.239831 -0.855976 -7.913801 6.424960 12.640989 -1.303672 5.490756 2.911130 0.417920 -0.167650 0.236210 18.220824 -9.346979 3.322197 9.274240 3.736379 -31.378300 8.403127 -4.768344 13.726299 0.114312 -1.990071 3.887516 0.306540 0.616800 0.044310 -3.775788 -4.344584 -7.736458 17.118389 -7.941674 14.312151 -0.226536 -5.789647 9.854754 -0.910947 -5.383635 -9.672401 -13.430546 -4.169623 28.831856 2.311220 -8.728360 -21.031520 -12.799265 -15.270595 0.505381 -58.080503 -47.022925 22.795979 -42.897506 -53.777719 20.136528 -3.839596 2.705998 1.090080 0.215600 -0.326950 0.177750 14.162699 13.571503 9.744173 39.295431 -5.786006 -2.748881 7.880246 -14.039943 -0.375075 1.939302 -0.783434 -0.841350 0.836020 0.368670 -0.490930 
1.642880 17.571720 -2.668040 2.965445 31.443979 6.462594 -15.469889 13.481420 3.114385 -4.374847 -0.045034 -0.017737 -9.246454 6.877871 13.176605 -1.163921 5.728477 2.840399 0.405360 -0.178430 0.226060 18.243341 -9.259890 3.272597 10.462808 3.572036 -28.832033 7.718533 -4.302294 11.858069 0.126869 -1.918471 3.938426 0.275710 0.627240 0.057460 -3.687313 -4.528807 -7.707103 16.439713 -7.879273 12.757034 -0.747455 -6.028526 9.783203 -0.790368 -5.512584 -9.860370 -13.998264 -3.093036 29.111654 2.189260 -8.147740 -19.124130 -11.578339 -14.728599 0.317762 -58.518614 -46.961918 23.144051 -39.081383 -48.029195 16.197519 -3.843302 2.708941 1.038090 0.232190 -0.337490 0.187880 12.692732 13.108237 10.030784 39.876304 -7.345883 -3.210152 10.061028 -14.775016 -0.880875 1.969785 -0.797480 -0.804290 0.795750 0.349360 -0.465980 
1.713510 17.573510 -2.540180 3.426144 28.707720 5.596409 -15.486749 13.558115 3.186887 -3.701583 -0.586786 1.173629 -10.985085 7.593340 14.821044 -0.970955 6.097617 2.717985 0.428480 -0.129420 0.226560 18.235165 -9.197903 3.173337 11.005203 2.996372 -25.343594 6.627055 -3.951268 10.465188 0.082133 -1.908791 3.974622 0.262760 0.599600 0.043970 -3.568364 -4.856931 -7.724877 15.603456 -8.268942 12.841725 -1.573054 -6.479172 9.881701 -0.573371 -6.054772 -10.321090 -15.763192 -1.903062 29.905730 3.109790 -7.785630 -19.097510 -10.423496 -14.904457 0.266148 -57.835458 -46.416159 22.094060 -35.676735 -42.595408 12.852908 -3.775294 2.684069 1.025460 0.195210 -0.299150 0.220410 11.128939 13.558926 10.564345 40.626580 -8.715397 -4.019228 12.549885 -14.232207 -1.504551 1.985978 -0.775487 -0.758530 0.783760 0.296250 -0.432330 
1.775360 17.573330 -2.415980 4.246392 26.381114 4.818772 -15.541142 13.692242 3.299701 -2.701218 -1.748955 1.446253 -13.283358 8.682734 18.185912 -0.746050 6.670263 2.500914 0.406940 -0.124350 0.204460 18.169395 -9.118422 3.082210 10.764547 2.462774 -22.556416 5.735761 -3.820984 9.937774 0.061287 -1.975233 3.990035 0.222770 0.565030 0.031730 -3.325104 -5.324720 -7.802856 13.772313 -8.648444 13.287955 -1.944736 -6.928981 9.601380 0.063198 -6.060406 -10.854896 -16.534384 -0.631665 30.880533 2.913370 -6.736630 -17.776600 -9.733870 -15.093532 0.407934 -56.770007 -44.103052 19.823740 -34.315547 -38.205106 10.824166 -3.740882 2.695166 0.994160 0.184500 -0.285370 0.218350 9.308266 13.855214 11.012674 41.846049 -10.340098 -5.290840 14.518042 -11.353118 -1.954099 1.967198 -0.757352 -0.714150 0.732550 0.270840 -0.415790 
1.828600 17.567710 -2.308870 4.677888 24.083085 4.151467 -15.564500 13.696557 3.397402 -1.229160 -3.714479 0.407957 -16.016850 10.072651 22.839579 -0.466395 7.421756 2.226008 0.472020 -0.034240 0.239710 18.147809 -9.030000 3.006857 10.729739 2.170864 -20.426915 5.073579 -3.767326 10.032835 -0.002362 -2.074444 3.954402 0.229910 0.511920 0.050900 -3.181699 -5.610212 -7.839930 12.792064 -9.351842 13.620059 -2.595433 -7.597934 8.889529 0.509468 -6.501950 -10.678917 -17.507463 0.269627 30.518894 2.826190 -6.050520 -16.911490 -9.832959 -13.491584 -0.116540 -56.682841 -41.930259 18.901443 -33.783887 -33.073627 9.277987 -3.691951 2.775812 0.943910 0.156690 -0.243200 0.258010 8.602692 12.623680 10.832734 41.010042 -11.812111 -6.278773 16.659095 -6.537297 -2.301106 1.929545 -0.821006 -0.629240 0.662820 0.184160 -0.379330 
1.877450 17.552800 -2.209070 5.102351 21.820689 4.411048 -15.555812 13.459107 3.563487 0.505783 -6.613564 -2.583977 -19.873265 12.060455 28.440358 -0.211615 8.572683 1.837639 0.459500 -0.038660 0.201050 18.186923 -8.919306 2.888656 10.570635 2.130684 -19.680501 4.689278 -3.797673 10.593948 0.006906 -2.193662 3.933185 0.241370 0.579530 0.048460 -3.160015 -5.612634 -7.817661 12.547549 -10.201293 12.864994 -3.626962 -8.379177 7.899789 0.623425 -7.203597 -10.036434 -17.995422 1.272578 28.366294 2.609010 -5.535890 -14.922860 -10.192340 -10.887331 -0.907316 -57.445618 -39.138214 18.291887 -33.545448 -27.761820 7.765324 -3.754203 2.803927 0.881350 0.205310 -0.293260 0.290590 8.774567 10.531831 10.189102 38.477938 -12.860193 -6.831964 20.599094 -1.926552 -2.644758 1.817546 -0.894776 -0.637590 0.674270 0.179250 -0.348670 
